<svg width="147" height="35" viewBox="0 0 147 35" fill="none" xmlns="http://www.w3.org/2000/svg">
<path d="M20.0924 14.9473L13.1795 8.02252C13.1092 7.9521 12.9953 7.9521 12.925 8.02252L0.353577 20.6156C0.28328 20.686 0.283282 20.8002 0.353578 20.8706L7.26647 27.7954C7.33677 27.8658 7.45074 27.8658 7.52104 27.7954L20.0924 15.2023C20.1627 15.1319 20.1627 15.0177 20.0924 14.9473Z" fill="#2F80ED"/>
<path d="M33.7626 27.7602L40.6051 20.9059C40.6948 20.816 40.6948 20.6703 40.6051 20.5804L28.1041 8.05787C28.0144 7.96798 27.8689 7.96798 27.7791 8.05787L20.9367 14.9122C20.8469 15.002 20.8469 15.1478 20.9367 15.2377L33.4376 27.7602C33.5274 27.8501 33.6729 27.8501 33.7626 27.7602Z" fill="#2F80ED"/>
<path d="M27.3586 27.3191L20.6072 20.5561C20.5502 20.499 20.4577 20.499 20.4006 20.5561L13.6492 27.3191C13.5922 27.3763 13.5922 27.4689 13.6492 27.5261L20.4006 34.2891C20.4576 34.3462 20.5502 34.3462 20.6072 34.2891L27.3586 27.5261C27.4156 27.4689 27.4156 27.3763 27.3586 27.3191Z" fill="#012555"/>
<path d="M27.3586 7.51297L20.6072 0.749977C20.5502 0.69282 20.4577 0.69282 20.4006 0.749978L13.6492 7.51297C13.5922 7.57013 13.5922 7.6628 13.6492 7.71996L20.4006 14.4829C20.4576 14.5401 20.5502 14.5401 20.6072 14.483L27.3586 7.71996C27.4156 7.6628 27.4156 7.57013 27.3586 7.51297Z" fill="#012555"/>
<path d="M58.1513 22.7491H51.3204L49.7233 27H46.7501L53.4335 9.8H54.7358C55.6204 9.8 56.2347 10.2341 56.5787 11.1023L62.7215 27H59.7238L58.1513 22.7491ZM52.1313 20.3411H57.3404L54.7604 13.3629H54.7358L52.1313 20.3411ZM67.6677 27.1966C66.1606 27.1966 64.9484 26.7625 64.0311 25.8943C63.1302 25.0261 62.6797 23.8794 62.6797 22.4543V19.3583C62.6797 18.4082 62.8844 17.5728 63.294 16.852C63.7035 16.1149 64.285 15.5497 65.0385 15.1566C65.7921 14.747 66.6603 14.5423 67.6431 14.5423H69.6088C71.0176 14.5423 72.1479 14.9518 72.9997 15.7709C73.8679 16.5735 74.302 17.6383 74.302 18.9651H71.5254C71.5254 18.3754 71.3452 17.9004 70.9848 17.54C70.6408 17.1632 70.1822 16.9749 69.6088 16.9749H67.6677C67.0288 16.9749 66.5046 17.2124 66.0951 17.6874C65.702 18.1625 65.5054 18.7768 65.5054 19.5303V22.2823C65.5054 23.0194 65.702 23.6173 66.0951 24.076C66.5046 24.5347 67.037 24.764 67.6923 24.764H69.6334C70.2395 24.764 70.7227 24.5429 71.0831 24.1006C71.4599 23.6583 71.6483 23.085 71.6483 22.3806H74.4248C74.4248 23.8221 73.9825 24.9851 73.098 25.8697C72.2298 26.7543 71.0749 27.1966 69.6334 27.1966H67.6677ZM80.2423 27.1966C78.7353 27.1966 77.5231 26.7625 76.6057 25.8943C75.7048 25.0261 75.2543 23.8794 75.2543 22.4543V19.3583C75.2543 18.4082 75.4591 17.5728 75.8686 16.852C76.2781 16.1149 76.8596 15.5497 77.6132 15.1566C78.3667 14.747 79.2349 14.5423 80.2177 14.5423H82.1834C83.5922 14.5423 84.7225 14.9518 85.5743 15.7709C86.4425 16.5735 86.8766 17.6383 86.8766 18.9651H84.1C84.1 18.3754 83.9198 17.9004 83.5594 17.54C83.2154 17.1632 82.7568 16.9749 82.1834 16.9749H80.2423C79.6034 16.9749 79.0793 17.2124 78.6697 17.6874C78.2766 18.1625 78.08 18.7768 78.08 19.5303V22.2823C78.08 23.0194 78.2766 23.6173 78.6697 24.076C79.0793 24.5347 79.6116 24.764 80.2669 24.764H82.208C82.8141 24.764 83.2973 24.5429 83.6577 24.1006C84.0345 23.6583 84.2229 23.085 84.2229 22.3806H86.9994C86.9994 23.8221 86.5572 24.9851 85.6726 25.8697C84.8044 26.7543 83.6495 27.1966 82.208 27.1966H80.2423ZM90.1632 13.3629C89.6063 13.3629 89.1558 13.199 88.8118 12.8714C88.4842 12.5274 88.3204 12.0933 88.3204 11.5691C88.3204 11.045 88.4842 10.619 88.8118 10.2914C89.1558 9.94743 89.6063 9.77543 90.1632 9.77543C90.7202 9.77543 91.1706 9.94743 91.5146 10.2914C91.8586 10.619 92.0306 11.045 92.0306 11.5691C92.0306 12.0933 91.8586 12.5274 91.5146 12.8714C91.1706 13.199 90.7202 13.3629 90.1632 13.3629ZM88.7626 14.7389H91.5884V27H88.7626V14.7389ZM98.7214 27.1966C97.2143 27.1966 96.0021 26.7625 95.0848 25.8943C94.1675 25.0097 93.7088 23.8467 93.7088 22.4051V19.3583C93.7088 18.4082 93.9135 17.5728 94.3231 16.852C94.749 16.1149 95.3387 15.5497 96.0922 15.1566C96.8621 14.747 97.7467 14.5423 98.7459 14.5423H100.908C101.907 14.5423 102.784 14.747 103.537 15.1566C104.307 15.5497 104.897 16.1149 105.306 16.852C105.732 17.5728 105.945 18.4082 105.945 19.3583V22.4051C105.945 23.8467 105.478 25.0097 104.545 25.8943C103.627 26.7625 102.399 27.1966 100.859 27.1966H98.7214ZM100.834 24.764C101.522 24.764 102.071 24.5347 102.481 24.076C102.907 23.601 103.12 22.9867 103.12 22.2331V19.5057C103.12 18.7522 102.915 18.1461 102.505 17.6874C102.096 17.2124 101.547 16.9749 100.859 16.9749H98.7951C98.1071 16.9749 97.5583 17.2124 97.1488 17.6874C96.7393 18.1461 96.5345 18.7522 96.5345 19.5057V22.2331C96.5345 22.9867 96.7393 23.601 97.1488 24.076C97.5583 24.5347 98.0907 24.764 98.7459 24.764H100.834ZM111.89 27.1966C110.842 27.1966 109.916 26.9509 109.114 26.4594C108.311 25.9516 107.688 25.2472 107.246 24.3463C106.804 23.429 106.583 22.3806 106.583 21.2011H109.408C109.408 22.2495 109.638 23.0931 110.096 23.732C110.555 24.3545 111.153 24.6657 111.89 24.6657H113.856C114.609 24.6657 115.207 24.3381 115.65 23.6829C116.108 23.0112 116.338 22.1185 116.338 21.0046V9.8H119.212V21.1029C119.212 22.3314 118.991 23.4044 118.549 24.3217C118.123 25.239 117.509 25.9516 116.706 26.4594C115.92 26.9509 115.002 27.1966 113.954 27.1966H111.89ZM125.79 27.1966C124.283 27.1966 123.071 26.7625 122.154 25.8943C121.236 25.0097 120.778 23.8467 120.778 22.4051V19.3583C120.778 18.4082 120.982 17.5728 121.392 16.852C121.818 16.1149 122.408 15.5497 123.161 15.1566C123.931 14.747 124.816 14.5423 125.815 14.5423H127.977C128.976 14.5423 129.853 14.747 130.606 15.1566C131.376 15.5497 131.966 16.1149 132.375 16.852C132.801 17.5728 133.014 18.4082 133.014 19.3583V22.4051C133.014 23.8467 132.547 25.0097 131.614 25.8943C130.696 26.7625 129.468 27.1966 127.928 27.1966H125.79ZM127.903 24.764C128.591 24.764 129.14 24.5347 129.55 24.076C129.976 23.601 130.189 22.9867 130.189 22.2331V19.5057C130.189 18.7522 129.984 18.1461 129.574 17.6874C129.165 17.2124 128.616 16.9749 127.928 16.9749H125.864C125.176 16.9749 124.627 17.2124 124.218 17.6874C123.808 18.1461 123.603 18.7522 123.603 19.5057V22.2331C123.603 22.9867 123.808 23.601 124.218 24.076C124.627 24.5347 125.16 24.764 125.815 24.764H127.903ZM140.237 27.1966C139.713 27.1966 139.172 27.0328 138.615 26.7051C138.074 26.3611 137.64 25.9352 137.313 25.4274V27H134.684V9.8H137.509V15.8691C137.837 15.4596 138.255 15.1402 138.762 14.9109C139.27 14.6651 139.778 14.5423 140.286 14.5423H142.006C142.907 14.5423 143.709 14.747 144.414 15.1566C145.118 15.5497 145.667 16.1067 146.06 16.8274C146.453 17.5482 146.65 18.3754 146.65 19.3091V22.2331C146.65 23.216 146.453 24.0842 146.06 24.8377C145.667 25.5912 145.11 26.1728 144.389 26.5823C143.685 26.9918 142.874 27.1966 141.957 27.1966H140.237ZM141.662 24.7149C142.301 24.7149 142.825 24.4773 143.234 24.0023C143.644 23.5109 143.849 22.872 143.849 22.0857V19.4811C143.849 18.744 143.652 18.1543 143.259 17.712C142.866 17.2533 142.358 17.024 141.736 17.024H140.163C139.442 17.024 138.836 17.2861 138.345 17.8103C137.853 18.3181 137.575 18.9897 137.509 19.8251V22.2331C137.591 22.9539 137.87 23.5518 138.345 24.0269C138.836 24.4855 139.401 24.7149 140.04 24.7149H141.662Z" fill="#012555"/>
</svg>
